<?xml version="1.0" encoding="utf-8"?>
<!-- Generator: Adobe Illustrator 23.0.1, SVG Export Plug-In . SVG Version: 6.00 Build 0)  -->
<svg version="1.1" id="Layer_1" xmlns="http://www.w3.org/2000/svg" xmlns:xlink="http://www.w3.org/1999/xlink" x="0px" y="0px"
	 viewBox="0 0 195 40" style="enable-background:new 0 0 195 40;" xml:space="preserve">
<style type="text/css">
	.st0{fill-rule:evenodd;clip-rule:evenodd;fill:#050505;}
	.st1{fill-rule:evenodd;clip-rule:evenodd;fill:#77787C;}
	.st2{fill:url(#SVGID_1_);}
	.st3{fill:url(#SVGID_2_);}
	.st4{fill:url(#SVGID_3_);}
	.st5{fill:url(#SVGID_4_);}
	.st6{fill:url(#SVGID_5_);}
	.st7{fill:url(#SVGID_6_);}
	.st8{fill:#EF7F3C;}
</style>
<g>
	<path class="st0" d="M181.66,9.43c6.12-0.6,10.6,3.87,11.03,9.45c0.52,5.63-2.76,10.95-8.7,11.71c-6.2,0.7-10.69-3.97-11.2-9.5
		C172.18,14.91,176.15,9.94,181.66,9.43L181.66,9.43z M181.32,7.72c-6.38,0.76-11.2,6.39-10.51,13.72
		c0.6,6.43,6.12,11.61,13.44,10.81c6.2-0.71,11.2-6.59,10.34-13.72c-0.43-3.72-2.06-6.28-4.05-8.04
		C188.12,8.33,184.68,7.37,181.32,7.72L181.32,7.72z"/>
	<path class="st0" d="M142.81,21.14c-0.6-6.08,3.36-11.26,8.87-11.71c6.2-0.55,10.51,3.77,11.11,9.4c0.6,6.23-3.36,11.15-8.87,11.75
		C147.81,31.24,143.41,26.67,142.81,21.14L142.81,21.14z M151.43,7.72c-6.47,0.71-11.2,6.48-10.52,13.67
		c0.18,1.71,0.61,3.27,1.38,4.62c0.52,1.11,1.81,2.77,2.67,3.42c2.84,2.21,5.26,3.27,9.31,2.82c6.54-0.71,11.03-6.73,10.42-13.67
		C164.09,12.04,158.58,6.92,151.43,7.72L151.43,7.72z"/>
	<path class="st0" d="M106.54,19.69c-0.78-0.31-8.27-0.15-9.65-0.1v1.56h6.98c0.34,0,0.69-0.05,0.95,0.1l-0.09,6.68
		c-0.26,0.7-3.79,2.21-5.26,2.46c-6.37,1.31-12.23-2.61-12.32-10.35c-0.17-9.35,9.48-13.52,16.2-8.74c0.34,0.25,0.86,0.75,1.12,0.85
		c0.35-0.15,0.95-1,1.21-1.31c-1.04-1.31-4.05-2.66-6.12-2.96c-4.22-0.7-7.4,0.25-10.42,2.87c-2.58,2.26-4.05,6.08-3.87,9.8
		c0.17,5.02,2.58,9.03,7.32,10.95c5.25,2.17,10.86,0,13.96-2.76V19.69z"/>
	<path class="st0" d="M123.86,10.04c0.35,0.96,1.12,2.41,1.55,3.42c0.43,1.1,0.95,2.26,1.46,3.32l3.1,6.79h-12.32L123.86,10.04z
		 M116.97,25.26h13.78l2.67,5.87c0.17,0.35,0.17,0.51,0.43,0.81l1.89-0.05l-5.43-11.96c-1.72-3.52-3.19-7.04-4.82-10.51l-0.77-1.5
		h-1.64c-0.26,0.25-2.5,5.22-2.84,5.93c-0.78,1.81-8.1,17.28-8.27,18.09h1.9L116.97,25.26z"/>
	<path class="st0" d="M59.07,8.08c-0.09,2.76,0,5.73,0,8.54c0,2.31-0.26,6.19,0.17,8.29c1.03,4.48,4.48,7.44,9.65,7.39
		c5.16-0.04,8.44-3.01,9.38-7.59c0.43-2.26,0.26-5.73,0.26-8.24c0-2.76,0-5.57,0-8.39h-1.9c-0.09,4.02,0.26,12.01,0,15.28
		c-0.35,4.47-3.19,7.23-7.93,7.23c-4.82,0-7.23-2.86-7.75-7.39c-0.26-2.16,0-11.81-0.09-15.12H59.07z"/>
	<path class="st1" d="M104.82,21.24c-0.26-0.15-0.6-0.1-0.95-0.1h-6.98v-1.56c1.37-0.05,8.87-0.2,9.65,0.1
		c-0.17-0.31-0.09-0.21-1.04-0.21c-1.63,0-8.1-0.1-8.7,0.06v1.66L104.82,21.24z"/>
	<g>
		<linearGradient id="SVGID_1_" gradientUnits="userSpaceOnUse" x1="5.4042" y1="11.6117" x2="17.3286" y2="19.0508">
			<stop  offset="0" style="stop-color:#5EB146"/>
			<stop  offset="1" style="stop-color:#65B345"/>
		</linearGradient>
		<path class="st2" d="M4.85,14.27c0,0,7.33,1.53,11.11,6.18l3.03-3.28C18.99,17.17,13.66,12.58,4.85,14.27z"/>
		<linearGradient id="SVGID_2_" gradientUnits="userSpaceOnUse" x1="18.6024" y1="25.8335" x2="32.8241" y2="11.94">
			<stop  offset="0" style="stop-color:#00759D"/>
			<stop  offset="0.8837" style="stop-color:#2086C2"/>
			<stop  offset="1" style="stop-color:#2088C9"/>
		</linearGradient>
		<path class="st3" d="M17.35,22.2c0,0,1.56,0.94,3.32,6.23c0,0,1.48-10.91,15.14-14.11C35.81,14.33,24.86,11.83,17.35,22.2z"/>
		<g>
			<linearGradient id="SVGID_3_" gradientUnits="userSpaceOnUse" x1="0.1576" y1="27.5209" x2="16.8489" y2="27.5209">
				<stop  offset="0.01" style="stop-color:#009444"/>
				<stop  offset="0.0176" style="stop-color:#009144"/>
				<stop  offset="0.0827" style="stop-color:#007E3D"/>
				<stop  offset="0.1565" style="stop-color:#006F38"/>
				<stop  offset="0.2437" style="stop-color:#006433"/>
				<stop  offset="0.3516" style="stop-color:#005C2F"/>
				<stop  offset="0.5028" style="stop-color:#00582D"/>
				<stop  offset="0.9229" style="stop-color:#00572D"/>
			</linearGradient>
			<path class="st4" d="M19.51,39.95C-2.21,37.25,0.42,15.09,0.42,15.09"/>
			<linearGradient id="SVGID_4_" gradientUnits="userSpaceOnUse" x1="19.6006" y1="27.5209" x2="0.421" y2="27.5209">
				<stop  offset="0" style="stop-color:#39B54A"/>
				<stop  offset="0.1175" style="stop-color:#59BA47"/>
				<stop  offset="0.3547" style="stop-color:#7FC242"/>
				<stop  offset="0.5843" style="stop-color:#96C93D"/>
				<stop  offset="0.8006" style="stop-color:#A4CE39"/>
				<stop  offset="0.99" style="stop-color:#A9CF38"/>
			</linearGradient>
			<path class="st5" d="M0.42,15.09c21.66,2.71,19.08,24.86,19.08,24.86"/>
		</g>
		<linearGradient id="SVGID_5_" gradientUnits="userSpaceOnUse" x1="21.1661" y1="27.5209" x2="40.359" y2="27.5209">
			<stop  offset="0" style="stop-color:#0C525F"/>
			<stop  offset="0.4433" style="stop-color:#0082A9"/>
			<stop  offset="1" style="stop-color:#00A3E6"/>
		</linearGradient>
		<path class="st6" d="M21.17,39.95c21.72-2.71,19.09-24.86,19.09-24.86"/>
		
			<linearGradient id="SVGID_6_" gradientUnits="userSpaceOnUse" x1="-976.0421" y1="27.5209" x2="-995.2198" y2="27.5209" gradientTransform="matrix(-1 0 0 1 -954.8671 0)">
			<stop  offset="0" style="stop-color:#19869C"/>
			<stop  offset="0.6601" style="stop-color:#64BFCE"/>
		</linearGradient>
		<path class="st7" d="M40.35,15.09C18.69,17.8,21.27,39.95,21.27,39.95"/>
		<path class="st8" d="M4.39,11.87c0,0,9.52-5.33,16.25-2.13v5.69C20.63,15.42,15.09,10.96,4.39,11.87z"/>
		<path class="st8" d="M36.88,11.87c0,0-9.52-5.33-16.25-2.13v5.69C20.63,15.42,26.17,10.96,36.88,11.87z"/>
		<path class="st8" d="M23.59,3.17c0,1.72-1.4,3.12-3.12,3.12s-3.12-1.4-3.12-3.12c0-1.72,1.4-3.12,3.12-3.12S23.59,1.45,23.59,3.17
			z"/>
	</g>
</g>
</svg>
